<svg width="13" height="13" viewBox="0 0 13 13" fill="none" xmlns="http://www.w3.org/2000/svg">
<path d="M1.45801 6.34298C1.45801 4.05468 1.45801 2.91054 2.16889 2.19965C2.87977 1.48877 4.02392 1.48877 6.31221 1.48877C8.60049 1.48877 9.74465 1.48877 10.4556 2.19965C11.1664 2.91054 11.1664 4.05468 11.1664 6.34298C11.1664 8.63125 11.1664 9.77541 10.4556 10.4863C9.74465 11.1972 8.60049 11.1972 6.31221 11.1972C4.02392 11.1972 2.87977 11.1972 2.16889 10.4863C1.45801 9.77541 1.45801 8.63125 1.45801 6.34298Z" stroke="#DAC5A7" stroke-width="0.57484" stroke-linejoin="round"/>
<path d="M8.61142 6.34282C8.61142 7.61273 7.58197 8.64218 6.31206 8.64218C5.04215 8.64218 4.0127 7.61273 4.0127 6.34282C4.0127 5.07292 5.04215 4.04346 6.31206 4.04346C7.58197 4.04346 8.61142 5.07292 8.61142 6.34282Z" stroke="#DAC5A7" stroke-width="0.57484"/>
<path d="M9.12667 3.53223H9.12183" stroke="#DAC5A7" stroke-width="0.766454" stroke-linecap="round" stroke-linejoin="round"/>
</svg>
