<svg width="33" height="33" viewBox="0 0 33 33" fill="none" xmlns="http://www.w3.org/2000/svg">
  <path d="M3.41553 16.1961C3.41553 10.225 3.41553 7.23941 5.27051 5.38441C7.12551 3.52942 10.1111 3.52942 16.0822 3.52942C22.0533 3.52942 25.0389 3.52942 26.8939 5.38441C28.7489 7.23941 28.7489 10.225 28.7489 16.1961C28.7489 22.1672 28.7489 25.1528 26.8939 27.0078C25.0389 28.8628 22.0533 28.8628 16.0822 28.8628C10.1111 28.8628 7.12551 28.8628 5.27051 27.0078C3.41553 25.1528 3.41553 22.1672 3.41553 16.1961Z" stroke="#DAC5A7" stroke-width="2" stroke-linejoin="round"/>
  <path d="M14.1301 14.8727C13.0367 14.7181 10.5444 14.9739 9.32234 17.2336C8.10026 19.4932 9.33193 21.8451 10.1005 22.7385C10.8595 23.5744 13.2719 25.1573 15.8307 23.6119C16.465 23.2288 17.2551 22.9431 18.1515 19.9497L18.0473 8.17126C17.8743 9.46825 19.307 12.5103 23.3862 12.8703" stroke="#DAC5A7" stroke-width="2" stroke-linecap="round" stroke-linejoin="round"/>
</svg>
