<svg width="20" height="20" viewBox="0 0 20 20" fill="none" xmlns="http://www.w3.org/2000/svg">
<path d="M19.1796 5.44535C19.1443 5.36028 19.0848 5.2875 19.0083 5.23609C18.9319 5.18468 18.8421 5.15692 18.75 5.15628H16.2812C15.9761 4.59583 15.5272 4.12674 14.9807 3.79721C14.4343 3.46769 13.8099 3.28961 13.1718 3.28128C12.2131 3.27712 11.2918 3.65291 10.6095 4.32643C9.92717 4.99995 9.53946 5.91634 9.53121 6.87503V7.55472C6.21871 6.76566 3.48433 4.07035 3.45308 4.04691C3.39285 3.98745 3.31765 3.94541 3.23546 3.92525C3.15326 3.90508 3.06714 3.90755 2.98623 3.93238C2.90533 3.95721 2.83265 4.00349 2.77592 4.06629C2.71919 4.1291 2.68052 4.20609 2.66402 4.2891C1.98433 8.00785 3.10152 10.4922 4.15621 11.9219C4.71558 12.6874 5.40273 13.3508 6.18746 13.8828C4.97652 15.3516 2.98433 16.1172 2.9609 16.125C2.89434 16.1495 2.83433 16.1891 2.78555 16.2406C2.73676 16.2921 2.70052 16.3541 2.67965 16.4219C2.65748 16.4881 2.65088 16.5584 2.66036 16.6275C2.66985 16.6966 2.69516 16.7626 2.73433 16.8203C2.81246 16.9375 3.57808 17.9688 6.24996 17.9688C11.6953 17.9688 16.25 13.7578 16.6875 8.3516L19.0781 5.95316C19.1458 5.88967 19.1921 5.80659 19.2103 5.71553C19.2285 5.62448 19.2178 5.53001 19.1796 5.44535ZM15.8984 7.81253C15.8171 7.89361 15.7697 8.0025 15.7656 8.11722C15.4453 13.1172 11.2656 17.0313 6.24996 17.0313C5.16402 17.0313 4.46871 16.8438 4.05465 16.6563C4.93746 16.211 6.38277 15.336 7.26558 14.0078C7.30075 13.9528 7.32442 13.8912 7.33516 13.8267C7.3459 13.7623 7.3435 13.6963 7.32808 13.6328C7.31143 13.5679 7.28125 13.5072 7.23951 13.4547C7.19778 13.4021 7.14543 13.359 7.0859 13.3282C7.07027 13.3282 5.8984 12.7188 4.88277 11.3282C3.67183 9.67191 3.19527 7.64847 3.4609 5.31253C4.60152 6.28128 7.06246 8.10941 9.92183 8.58597C9.98913 8.59875 10.0584 8.59638 10.1247 8.57901C10.191 8.56164 10.2525 8.52972 10.3049 8.48558C10.3573 8.44143 10.3992 8.38616 10.4275 8.32379C10.4558 8.26143 10.4699 8.19353 10.4687 8.12503V6.87503C10.4749 6.16705 10.761 5.49029 11.2646 4.99259C11.7681 4.49488 12.4482 4.21669 13.1562 4.21878C13.6678 4.22617 14.1665 4.38028 14.593 4.66281C15.0196 4.94533 15.3561 5.34438 15.5625 5.81253C15.5981 5.89675 15.658 5.96846 15.7345 6.01854C15.811 6.06863 15.9007 6.09482 15.9921 6.09378H17.6171L15.8984 7.81253Z" fill="#DAC5A7"/>
</svg>
