<svg width="26" height="25" viewBox="0 0 26 25" fill="none" xmlns="http://www.w3.org/2000/svg">
<path d="M3.19702 12.4022C3.19702 7.82728 3.19702 5.53982 4.61826 4.11857C6.03952 2.69733 8.32698 2.69733 12.9019 2.69733C17.4768 2.69733 19.7643 2.69733 21.1856 4.11857C22.6068 5.53982 22.6068 7.82728 22.6068 12.4022C22.6068 16.9771 22.6068 19.2646 21.1856 20.6859C19.7643 22.1071 17.4768 22.1071 12.9019 22.1071C8.32698 22.1071 6.03952 22.1071 4.61826 20.6859C3.19702 19.2646 3.19702 16.9771 3.19702 12.4022Z" stroke="#DAC5A7" stroke-width="1.53235" stroke-linejoin="round"/>
<path d="M11.4062 11.3883C10.5685 11.2699 8.65895 11.4658 7.72264 13.1972C6.78631 14.9284 7.72998 16.7304 8.31885 17.4149C8.90037 18.0553 10.7487 19.2681 12.7092 18.084C13.1952 17.7905 13.8005 17.5716 14.4873 15.2782L14.4074 6.25385C14.2749 7.24756 15.3726 9.57833 18.498 9.8541" stroke="#DAC5A7" stroke-width="1.53235" stroke-linecap="round" stroke-linejoin="round"/>
</svg>
