<svg width="32" height="33" viewBox="0 0 32 33" fill="none" xmlns="http://www.w3.org/2000/svg">
<rect x="0.5" y="0.780762" width="31" height="31" rx="15.5" fill="#DAC5A7" fill-opacity="0.05"/>
<rect x="0.5" y="0.780762" width="31" height="31" rx="15.5" stroke="#0E0E0E"/>
<path d="M20.9218 11.7808V19.0933C20.9218 19.2052 20.8773 19.3125 20.7982 19.3916C20.7191 19.4707 20.6118 19.5151 20.4999 19.5151C20.388 19.5151 20.2807 19.4707 20.2016 19.3916C20.1225 19.3125 20.078 19.2052 20.078 19.0933V12.8003L11.7952 21.0761C11.7169 21.1544 11.6107 21.1984 11.4999 21.1984C11.3891 21.1984 11.2829 21.1544 11.2046 21.0761C11.1263 20.9978 11.0823 20.8915 11.0823 20.7808C11.0823 20.67 11.1263 20.5638 11.2046 20.4854L19.4804 12.2026H13.1874C13.0755 12.2026 12.9682 12.1582 12.8891 12.0791C12.81 12 12.7655 11.8926 12.7655 11.7808C12.7655 11.6689 12.81 11.5616 12.8891 11.4825C12.9682 11.4033 13.0755 11.3589 13.1874 11.3589H20.4999C20.6118 11.3589 20.7191 11.4033 20.7982 11.4825C20.8773 11.5616 20.9218 11.6689 20.9218 11.7808Z" fill="#0E0E0E"/>
</svg>
