<svg width="33" height="33" viewBox="0 0 33 33" fill="none" xmlns="http://www.w3.org/2000/svg">
<path d="M3.80774 16.5C3.80774 10.5289 3.80774 7.54336 5.66273 5.68836C7.51773 3.83337 10.5033 3.83337 16.4744 3.83337C22.4455 3.83337 25.4311 3.83337 27.2861 5.68836C29.1411 7.54336 29.1411 10.5289 29.1411 16.5C29.1411 22.4711 29.1411 25.4567 27.2861 27.3118C25.4311 29.1667 22.4455 29.1667 16.4744 29.1667C10.5033 29.1667 7.51773 29.1667 5.66273 27.3118C3.80774 25.4567 3.80774 22.4711 3.80774 16.5Z" stroke="#DAC5A7" stroke-width="1.5" stroke-linejoin="round"/>
<path d="M22.4744 16.5C22.4744 19.8137 19.7881 22.5 16.4744 22.5C13.1607 22.5 10.4744 19.8137 10.4744 16.5C10.4744 13.1863 13.1607 10.5 16.4744 10.5C19.7881 10.5 22.4744 13.1863 22.4744 16.5Z" stroke="#DAC5A7" stroke-width="1.5"/>
<path d="M23.8182 9.16663H23.8062" stroke="#DAC5A7" stroke-width="2" stroke-linecap="round" stroke-linejoin="round"/>
</svg>
