<svg width="25" height="26" viewBox="0 0 25 26" fill="none" xmlns="http://www.w3.org/2000/svg">
<path d="M2.98022 12.8111C2.98022 8.23616 2.98022 5.9487 4.40147 4.52744C5.82272 3.1062 8.11018 3.1062 12.6851 3.1062C17.26 3.1062 19.5475 3.1062 20.9688 4.52744C22.39 5.9487 22.39 8.23616 22.39 12.8111C22.39 17.3859 22.39 19.6734 20.9688 21.0947C19.5475 22.5159 17.26 22.5159 12.6851 22.5159C8.11018 22.5159 5.82272 22.5159 4.40147 21.0947C2.98022 19.6734 2.98022 17.3859 2.98022 12.8111Z" stroke="#DAC5A7" stroke-width="1.14926" stroke-linejoin="round"/>
<path d="M17.2825 12.8111C17.2825 15.35 15.2243 17.4081 12.6854 17.4081C10.1465 17.4081 8.08838 15.35 8.08838 12.8111C8.08838 10.2722 10.1465 8.21405 12.6854 8.21405C15.2243 8.21405 17.2825 10.2722 17.2825 12.8111Z" stroke="#DAC5A7" stroke-width="1.14926"/>
<path d="M18.3142 7.19244H18.303" stroke="#DAC5A7" stroke-width="1.53235" stroke-linecap="round" stroke-linejoin="round"/>
</svg>
