<svg width="22" height="22" viewBox="0 0 22 22" fill="none" xmlns="http://www.w3.org/2000/svg">
<path d="M16.9893 5.71594V14.1984C16.9893 14.3282 16.9377 14.4527 16.8459 14.5445C16.7542 14.6363 16.6297 14.6878 16.4999 14.6878C16.3701 14.6878 16.2456 14.6363 16.1539 14.5445C16.0621 14.4527 16.0105 14.3282 16.0105 14.1984V6.89859L6.40246 16.4985C6.31161 16.5894 6.18838 16.6404 6.0599 16.6404C5.93141 16.6404 5.80819 16.5894 5.71733 16.4985C5.62648 16.4076 5.57544 16.2844 5.57544 16.1559C5.57544 16.0275 5.62648 15.9042 5.71733 15.8134L15.3172 6.20531H8.0174C7.88761 6.20531 7.76313 6.15375 7.67136 6.06198C7.57958 5.9702 7.52802 5.84573 7.52802 5.71594C7.52802 5.58615 7.57958 5.46167 7.67136 5.3699C7.76313 5.27812 7.88761 5.22656 8.0174 5.22656H16.4999C16.6297 5.22656 16.7542 5.27812 16.8459 5.3699C16.9377 5.46167 16.9893 5.58615 16.9893 5.71594Z" fill="#0E0E0E"/>
</svg>
