<svg width="16" height="16" viewBox="0 0 16 16" fill="none" xmlns="http://www.w3.org/2000/svg">
<path d="M8 5.125C7.43138 5.125 6.87553 5.29362 6.40274 5.60952C5.92994 5.92543 5.56145 6.37445 5.34385 6.89979C5.12624 7.42512 5.06931 8.00319 5.18024 8.56088C5.29118 9.11858 5.56499 9.63086 5.96707 10.0329C6.36914 10.435 6.88142 10.7088 7.43912 10.8198C7.99681 10.9307 8.57488 10.8738 9.10021 10.6562C9.62555 10.4386 10.0746 10.0701 10.3905 9.59726C10.7064 9.12447 10.875 8.56862 10.875 8C10.875 7.2375 10.5721 6.50624 10.0329 5.96707C9.49377 5.4279 8.7625 5.125 8 5.125ZM8 10.125C7.57971 10.125 7.16887 10.0004 6.81941 9.76687C6.46996 9.53338 6.19759 9.20149 6.03676 8.8132C5.87592 8.42491 5.83384 7.99764 5.91583 7.58543C5.99782 7.17322 6.20021 6.79458 6.4974 6.4974C6.79458 6.20021 7.17322 5.99782 7.58543 5.91583C7.99764 5.83384 8.42491 5.87592 8.8132 6.03676C9.20149 6.19759 9.53338 6.46996 9.76687 6.81941C10.0004 7.16887 10.125 7.57971 10.125 8C10.1234 8.56308 9.89894 9.10262 9.50078 9.50078C9.10262 9.89894 8.56308 10.1234 8 10.125ZM10.75 1.875H5.25C4.35489 1.875 3.49645 2.23058 2.86351 2.86351C2.23058 3.49645 1.875 4.35489 1.875 5.25V10.75C1.875 11.6451 2.23058 12.5035 2.86351 13.1365C3.49645 13.7694 4.35489 14.125 5.25 14.125H10.75C11.6451 14.125 12.5035 13.7694 13.1365 13.1365C13.7694 12.5035 14.125 11.6451 14.125 10.75V5.25C14.125 4.35489 13.7694 3.49645 13.1365 2.86351C12.5035 2.23058 11.6451 1.875 10.75 1.875ZM13.375 10.75C13.375 11.4462 13.0984 12.1139 12.6062 12.6062C12.1139 13.0984 11.4462 13.375 10.75 13.375H5.25C4.55381 13.375 3.88613 13.0984 3.39384 12.6062C2.90156 12.1139 2.625 11.4462 2.625 10.75V5.25C2.625 4.55381 2.90156 3.88613 3.39384 3.39384C3.88613 2.90156 4.55381 2.625 5.25 2.625H10.75C11.4462 2.625 12.1139 2.90156 12.6062 3.39384C13.0984 3.88613 13.375 4.55381 13.375 5.25V10.75ZM11.875 4.75C11.875 4.87361 11.8383 4.99445 11.7697 5.09723C11.701 5.20001 11.6034 5.28012 11.4892 5.32742C11.375 5.37473 11.2493 5.38711 11.1281 5.36299C11.0068 5.33888 10.8955 5.27935 10.8081 5.19194C10.7206 5.10453 10.6611 4.99317 10.637 4.87193C10.6129 4.75069 10.6253 4.62503 10.6726 4.51082C10.7199 4.39662 10.8 4.29901 10.9028 4.23033C11.0055 4.16166 11.1264 4.125 11.25 4.125C11.4158 4.125 11.5747 4.19085 11.6919 4.30806C11.8092 4.42527 11.875 4.58424 11.875 4.75Z" fill="#DAC5A7"/>
</svg>
