<svg width="16" height="16" viewBox="0 0 16 16" fill="none" xmlns="http://www.w3.org/2000/svg">
<path d="M15.3438 4.35628C15.3155 4.28822 15.2679 4.23 15.2067 4.18887C15.1456 4.14775 15.0737 4.12554 15 4.12503H13.025C12.7809 3.67667 12.4218 3.30139 11.9846 3.03777C11.5475 2.77415 11.048 2.63169 10.5375 2.62503C9.77054 2.62169 9.03347 2.92233 8.48763 3.46115C7.94179 3.99996 7.63162 4.73307 7.62502 5.50003V6.04378C4.97502 5.41253 2.78752 3.25628 2.76252 3.23753C2.71433 3.18996 2.65417 3.15633 2.58841 3.1402C2.52266 3.12407 2.45376 3.12604 2.38904 3.1459C2.32431 3.16577 2.26617 3.20279 2.22079 3.25303C2.1754 3.30328 2.14447 3.36487 2.13127 3.43128C1.58752 6.40628 2.48127 8.39378 3.32502 9.53753C3.77252 10.1499 4.32223 10.6806 4.95002 11.1063C3.98127 12.2813 2.38752 12.8938 2.36877 12.9C2.31552 12.9196 2.26751 12.9513 2.22849 12.9925C2.18946 13.0337 2.16047 13.0833 2.14377 13.1375C2.12603 13.1904 2.12075 13.2467 2.12834 13.302C2.13593 13.3573 2.15618 13.4101 2.18752 13.4563C2.25002 13.55 2.86252 14.375 5.00002 14.375C9.35627 14.375 13 11.0063 13.35 6.68128L15.2625 4.76253C15.3167 4.71174 15.3537 4.64527 15.3683 4.57243C15.3828 4.49959 15.3743 4.42401 15.3438 4.35628ZM12.7188 6.25003C12.6538 6.31489 12.6158 6.402 12.6125 6.49378C12.3563 10.4938 9.01252 13.625 5.00002 13.625C4.13127 13.625 3.57502 13.475 3.24377 13.325C3.95002 12.9688 5.10627 12.2688 5.81252 11.2063C5.84065 11.1622 5.85959 11.1129 5.86818 11.0614C5.87677 11.0098 5.87485 10.9571 5.86252 10.9063C5.84919 10.8543 5.82505 10.8057 5.79166 10.7637C5.75827 10.7217 5.7164 10.6872 5.66877 10.6625C5.65627 10.6625 4.71877 10.175 3.90627 9.06253C2.93752 7.73753 2.55627 6.11878 2.76877 4.25003C3.68127 5.02503 5.65002 6.48753 7.93752 6.86878C7.99136 6.879 8.0468 6.8771 8.09981 6.86321C8.15282 6.84931 8.20207 6.82378 8.24397 6.78846C8.28588 6.75314 8.31938 6.70893 8.34205 6.65903C8.36472 6.60914 8.37598 6.55482 8.37502 6.50003V5.50003C8.37997 4.93364 8.60887 4.39223 9.01172 3.99407C9.41456 3.59591 9.95861 3.37335 10.525 3.37503C10.9343 3.38094 11.3332 3.50423 11.6745 3.73024C12.0157 3.95626 12.2849 4.2755 12.45 4.65003C12.4785 4.7174 12.5264 4.77477 12.5877 4.81484C12.6489 4.8549 12.7206 4.87585 12.7938 4.87503H14.0938L12.7188 6.25003Z" fill="#DAC5A7"/>
</svg>
