<svg width="33" height="33" viewBox="0 0 33 33" fill="none" xmlns="http://www.w3.org/2000/svg">
  <path d="M16.7784 27.5293C19.1913 27.5293 21.5052 27.2909 23.6496 26.8539C26.3281 26.3079 27.6675 26.0348 28.8896 24.4635C30.1117 22.8921 30.1117 21.0884 30.1117 17.4807V14.9113C30.1117 11.3036 30.1117 9.49983 28.8896 7.9285C27.6675 6.35718 26.3281 6.08418 23.6496 5.53816C21.5052 5.10103 19.1913 4.86267 16.7784 4.86267C14.3655 4.86267 12.0516 5.10103 9.90715 5.53816C7.22861 6.08418 5.88935 6.35718 4.6672 7.9285C3.44507 9.49983 3.44507 11.3036 3.44507 14.9113V17.4807C3.44507 21.0884 3.44507 22.8921 4.6672 24.4635C5.88935 26.0348 7.22861 26.3079 9.90715 26.8539C12.0516 27.2909 14.3655 27.5293 16.7784 27.5293Z" stroke="#DAC5A7" stroke-width="2"/>
  <path d="M22.0611 16.6133C21.8633 17.421 20.8105 18.0012 18.7049 19.1616C16.4146 20.4234 15.2695 21.0545 14.3421 20.8114C14.0279 20.729 13.7386 20.5842 13.4956 20.3878C12.7783 19.8079 12.7783 18.6039 12.7783 16.1961C12.7783 13.7882 12.7783 12.5842 13.4956 12.0043C13.7386 11.8079 14.0279 11.6631 14.3421 11.5808C15.2695 11.3377 16.4146 11.9687 18.7049 13.2307C20.8105 14.391 21.8633 14.9712 22.0611 15.7789C22.1285 16.0538 22.1285 16.3383 22.0611 16.6133Z" stroke="#DAC5A7" stroke-width="2" stroke-linejoin="round"/>
</svg>
