<svg width="13" height="13" viewBox="0 0 13 13" fill="none" xmlns="http://www.w3.org/2000/svg">
<path d="M6.56257 10.686C7.48727 10.686 8.37401 10.5946 9.1958 10.4271C10.2223 10.2179 10.7356 10.1132 11.2039 9.51106C11.6723 8.90889 11.6723 8.21765 11.6723 6.83507V5.85043C11.6723 4.46787 11.6723 3.7766 11.2039 3.17442C10.7356 2.57225 10.2223 2.46763 9.1958 2.25838C8.37401 2.09086 7.48727 1.99951 6.56257 1.99951C5.63787 1.99951 4.75113 2.09086 3.92932 2.25838C2.90284 2.46763 2.38959 2.57225 1.92124 3.17442C1.45288 3.7766 1.45288 4.46787 1.45288 5.85043V6.83507C1.45288 8.21765 1.45288 8.90889 1.92124 9.51106C2.38959 10.1132 2.90284 10.2179 3.92932 10.4271C4.75113 10.5946 5.63787 10.686 6.56257 10.686Z" stroke="#DAC5A7" stroke-width="0.766454"/>
<path d="M8.5872 6.50296C8.51138 6.81251 8.10791 7.03483 7.30099 7.47952C6.4233 7.96311 5.98448 8.20495 5.62905 8.1118C5.50867 8.08022 5.39778 8.02473 5.30468 7.94946C5.02978 7.72724 5.02979 7.26584 5.02979 6.34308C5.02979 5.42032 5.02978 4.95892 5.30468 4.73668C5.39778 4.66141 5.50867 4.60593 5.62905 4.57438C5.98448 4.48121 6.4233 4.72303 7.30099 5.20665C8.10791 5.65133 8.51138 5.87365 8.5872 6.1832C8.61301 6.28856 8.61301 6.3976 8.5872 6.50296Z" stroke="#DAC5A7" stroke-width="0.766454" stroke-linejoin="round"/>
</svg>
