<svg width="25" height="26" viewBox="0 0 25 26" fill="none" xmlns="http://www.w3.org/2000/svg">
<path d="M12.4525 21.5166C14.3012 21.5166 16.074 21.3339 17.717 20.999C19.7692 20.5807 20.7954 20.3715 21.7318 19.1676C22.6681 17.9637 22.6681 16.5817 22.6681 13.8175V11.849C22.6681 9.08487 22.6681 7.70283 21.7318 6.49892C20.7954 5.29502 19.7692 5.08585 17.717 4.66751C16.074 4.33259 14.3012 4.14996 12.4525 4.14996C10.6037 4.14996 8.83091 4.33259 7.18789 4.66751C5.13567 5.08585 4.10956 5.29502 3.17318 6.49892C2.23682 7.70283 2.23682 9.08487 2.23682 11.849V13.8175C2.23682 16.5817 2.23682 17.9637 3.17318 19.1676C4.10956 20.3715 5.13567 20.5807 7.18789 20.999C8.83091 21.3339 10.6037 21.5166 12.4525 21.5166Z" stroke="#DAC5A7" stroke-width="1.53235"/>
<path d="M16.4999 13.1528C16.3483 13.7716 15.5417 14.2161 13.9285 15.1052C12.1737 16.072 11.2964 16.5555 10.5858 16.3693C10.3451 16.3061 10.1234 16.1952 9.93729 16.0447C9.38769 15.6004 9.3877 14.678 9.3877 12.8331C9.3877 10.9883 9.38769 10.0658 9.93729 9.62149C10.1234 9.47099 10.3451 9.36008 10.5858 9.297C11.2964 9.11074 12.1737 9.59418 13.9285 10.5611C15.5417 11.4501 16.3483 11.8946 16.4999 12.5135C16.5515 12.7241 16.5515 12.9421 16.4999 13.1528Z" stroke="#DAC5A7" stroke-width="1.53235" stroke-linejoin="round"/>
</svg>
